. 
  
http://www.torrentday.com/        :     The Hottest Private Tracker On The Net!!!


               www . TorrentDay . Com 
(((((((((((((= Enjoy No RAR releases =))))))))))))))))))))


...................................NFO:....................................

.*******************************************************************************
                The.White.Knight.2006.DVDRip.AC3.X264-BARC0DE
*******************************************************************************

-------------------------------------------------------------------------------
                              General Information
-------------------------------------------------------------------------------
Type.................: Movie
Name.................: Tirante el Blanco "The White Knight" - USA (DVD title)
Movie Information....: http://www.imdb.com/title/tt0448154/
Genre................: Adventure
-------------------------------------------------------------------------------
                                    PLOT
-------------------------------------------------------------------------------
Tirante the knight is as committed to fighting the Turks in Constantinople as he 
is to relieving Carmesina, the heiress to the Byzantine Empire, of her virginity.  

-------------------------------------------------------------------------------
                                    CAST
-------------------------------------------------------------------------------
Casper Zafer	... 	Tirante
Esther Nubiola	... 	Carmesina
Leonor Watling	... 	Placer De Mi Vida (Pleasure-of-my-life)
Ingrid Rubio	... 	Estefana
Jane Asher	... 	Emperatriz
Charlie Cox	... 	Diafebus
Sid Mitchell	... 	Hiplito
Rafael Amargo	... 	Gran Turco
Jay Benedict	... 	Embajador Turco (Turkish Ambassador)
Victoria Abril	... 	Viuda Reposada
Giancarlo Giannini	... 	Emperador
Rebecca Cobos	... 	Eliseo
Valentina Burgueo	... 	Dama Carmesina (Carmesina's Maiden)
Julio Vlez	... 	Sinpolis, Capitn 1
Ismael Martnez	... 	Piramus, Capitn 2

-------------------------------------------------------------------------------
                                    MEDiA iNFO
-------------------------------------------------------------------------------

General
Complete name                    : The.White.Knight.2006.DVDRip.AC3.X264-BARC0DE.mkv
Format                           : Matroska
File size                        : 1.48 GiB
Duration                         : 2h 1mn
Overall bit rate                 : 1 739 Kbps

Video
ID                               : 1
Format                           : AVC
Format/Info                      : Advanced Video Codec
Format profile                   : High@L3.0
Format settings, CABAC           : Yes
Format settings, ReFrames        : 3 frames
Muxing mode                      : Container profile=Unknown@3.0
Codec ID                         : V_MPEG4/ISO/AVC
Duration                         : 2h 1mn
Bit rate                         : 1 329 Kbps
Width                            : 720 pixels
Height                           : 304 pixels
Display aspect ratio             : 2.35:1
Frame rate                       : 25.000 fps
Color space                      : YUV
Chroma subsampling               : 4:2:0
Bit depth                        : 8 bits
Scan type                        : Progressive
Bits/(Pixel*Frame)               : 0.243
Stream size                      : 1.12 GiB (76%)
Writing library                  : x264 core 79


Audio
ID                               : 2
Format                           : AC-3
Format/Info                      : Audio Coding 3
Mode extension                   : CM (complete main)
Codec ID                         : A_AC3
Duration                         : 2h 1mn
Bit rate mode                    : Constant
Bit rate                         : 384 Kbps
Channel(s)                       : 6 channels
Channel positions                : Front: L C R, Side: L R, LFE
Sampling rate                    : 48.0 KHz
Stream size                      : 335 MiB (22%)
Language                         : English